<svg id="b69a07b3-3572-4c3f-85b3-f433e037f439" data-name="logo_variant" xmlns="http://www.w3.org/2000/svg" viewBox="0 0 68.5 95.98"><defs><style>.a88ca3ed-4a93-433e-a7d9-c1a58cf28fed{fill:#fff;}</style></defs><title>MyLogoSVG</title><g id="e39fa890-84f8-4ccb-b93c-8227051528ca" data-name="I"><path class="a88ca3ed-4a93-433e-a7d9-c1a58cf28fed" d="M8.07,24.92c0-3.4-.47-5.91-1.4-7.55s-2.8-2.45-5.6-2.45h-1v-3h27.2q20.21,0,30.75,8.55T68.57,44.52A33.68,33.68,0,0,1,64.12,62a29.77,29.77,0,0,1-13.2,11.75q-8.74,4.2-21,4.2H8.07Zm21.5,49A22.47,22.47,0,0,0,42,70.42a23.17,23.17,0,0,0,8.5-10.1,36.42,36.42,0,0,0,3-15.4,35.84,35.84,0,0,0-3-15.25A23.78,23.78,0,0,0,42,19.52a22.5,22.5,0,0,0-12.6-3.6h-.8a28.65,28.65,0,0,0-5.3.4l-2.2.3v56.6l2.2.4a38.63,38.63,0,0,0,5.3.3ZM38.94,1.24a6.81,6.81,0,0,1,2.89,4.18,31.83,31.83,0,0,1,.86,8.51V70.68H28.77V13.93q0-5.46-1.5-8.09t-6-2.62H20.2V0H33.05A11.49,11.49,0,0,1,38.94,1.24ZM31.76,3.09h4.09v1h-.34A2,2,0,0,0,33.6,5a5.3,5.3,0,0,0-.48,2.57v18H28.7v-18A10.4,10.4,0,0,1,29,4.81a2.17,2.17,0,0,1,.92-1.32A3.54,3.54,0,0,1,31.76,3.09Zm.67,91.67a6.81,6.81,0,0,1-2.89-4.18,32.25,32.25,0,0,1-.86-8.51V25.32H42.6V82.07q0,5.46,1.5,8.09t6,2.62h1.07V96H38.32A11.51,11.51,0,0,1,32.43,94.76Z" transform="translate(-0.07 -0.01)"/></g></svg>